{"title":"Crazy Eights 2006 DVDRip XviD - NoZGT","uid":7015311,"size":1022945623,"categoryP":"video","categoryS":"movies","magnet":"?xt=urn:btih:6997431fcccf1eb6572f27f90bec2c2c06905640&amp;dn=Crazy+Eights+2006+DVDRip+XviD+-+NoZGT&amp;tr=udp%3A%2F%2Ftracker.openbittorrent.com%3A80&amp;tr=udp%3A%2F%2Fopen.demonii.com%3A1337&amp;tr=udp%3A%2F%2Ftracker.coppersurfer.tk%3A6969&amp;tr=udp%3A%2F%2Fexodus.desync.com%3A6969","seeders":2,"leechers":1,"uploader":"MScope40","files":-1,"time":1328630390,"description":"Plot\nCircumstance brings six childhood friends together to face their past, and a secret they share \n\nGeneral Information\n &lt;a href=&quot;\nhttp://www.imdb.com/title/tt0470993/&quot; rel=&quot;nofollow&quot; target=&quot;_NEW&quot;&gt;\nhttp://www.imdb.com/title/tt0470993/&lt;/a&gt;\nFormat : AVI\nFormat/Info : Audio Video Interleave\nFile size : 965 MiB\nDuration : 1h 20mn\nOverall bit rate : 1 684 Kbps\n\nVideo Information\n\nID : 0\nFormat : MPEG-4 Visual\nFormat profile : Advanced Simple@L5\nFormat settings, BVOP : No\nFormat settings, QPel : No\nFormat settings, GMC : No warppoints\nFormat settings, Matrix : Default (MPEG)\nCodec ID : XVID\nCodec ID/Hint : XviD\nDuration : 1h 20mn\nBit rate : 1 483 Kbps\nWidth : 852 pixels\nHeight : 480 pixels\nDisplay aspect ratio : 16:9\nFrame rate : 29.970 fps\nColor space : YUV\nChroma subsampling : 4:2:0\nBit depth : 8 bits\nScan type : Progressive\nBits/(Pixel*Frame) : 0.121\nStream size : 850 MiB (88%)\nWriting library : XviD 62\n\nAudio Information\n\nID : 1\nFormat : MPEG Audio\nFormat version : Version 1\nFormat profile : Layer 3\nCodec ID : 55\nCodec ID/Hint : MP3\nDuration : 1h 20mn\nBit rate mode : Constant\nBit rate : 192 Kbps\nChannel(s) : 2 channels\nSampling rate : 44.1 KHz\nStream size : 110 MiB (11%)\nAlignment : Split accross interleaves\nInterleave, duration : 67 ms (2.00 video frames)\nWriting library : LAMELAME_MAJOR_VERSI\n\n\n\n","torrent":{"xt":"urn:btih:6997431fcccf1eb6572f27f90bec2c2c06905640","amp;dn":"Crazy+Eights+2006+DVDRip+XviD+-+NoZGT","amp;tr":["udp%3A%2F%2Ftracker.openbittorrent.com%3A80","udp%3A%2F%2Fopen.demonii.com%3A1337","udp%3A%2F%2Ftracker.coppersurfer.tk%3A6969","udp%3A%2F%2Fexodus.desync.com%3A6969"],"infoHash":"6997431fcccf1eb6572f27f90bec2c2c06905640","infoHashBuffer":{"type":"Buffer","data":[105,151,67,31,204,207,30,182,87,47,39,249,11,236,44,44,6,144,86,64]},"announce":[],"urlList":[]}}